# xmcd
# 
# Track frame offsets:
#   150
#   19984
#   38001
#   57142
#   75234
#   94617
#   111043
#   130349
#   152402
#   167477
#   186583
#   204457
#   227889
#   248048
#   265888
# 
# Disc length: 3855 seconds
# 
# Revision: 0
# Processed by: cddbd v1.5.2PL0 Copyright (c) Steve Scherf et al.
# Submitted via: Synapstar 1.0 
# 
DISCID=b90f0d0f
DTITLE=Various Artist - SC CH Vol. 160 8816
DYEAR=1900
DGENRE=Country
TTITLE0=Travis Tritt - Country Ain't County
TTITLE1=Toby Keith - Rock You Baby
TTITLE2=Leann Rimes - Suddenly
TTITLE3=Johnny Cash - Hurt
TTITLE4=Kenny Chesney - Big Star
TTITLE5=Phil Vassar - This Is Good
TTITLE6=Jo Dee Messina - Was That My Life
TTITLE7=Mark Wills - When You Think of Me
TTITLE8=Rascal Flatts - Love You Out Loud
TTITLE9=Steve Holly - Rock A Bye Heart
TTITLE10=Jimmy Wayne - Stay Gone
TTITLE11=Kid Rock and Sheryl Crow - Picture
TTITLE12=Jeff Bates - The Love Song
TTITLE13=Kellie Coffey - Whatever It Takes
TTITLE14=Steve Wariner - Snowfall on the Sand
EXTD=MediaType: Karaoke CD+G Producer: Sound Choice
EXTT0=
EXTT1=
EXTT2=
EXTT3=
EXTT4=
EXTT5=
EXTT6=
EXTT7=
EXTT8=
EXTT9=
EXTT10=
EXTT11=
EXTT12=
EXTT13=
EXTT14=
PLAYORDER=
